<svg xmlns="http://www.w3.org/2000/svg" viewBox="0 0 200 200">
  <rect width="200" height="200" rx="36" fill="#45503b"/>
  <g fill="#63a46c">
    <g transform="translate(10,15) rotate(-18 45 50)">
      <ellipse cx="15" cy="35" rx="10" ry="13" transform="rotate(-18 15 35)"/>
      <ellipse cx="35" cy="18" rx="11" ry="14"/>
      <ellipse cx="58" cy="18" rx="11" ry="14"/>
      <ellipse cx="78" cy="35" rx="10" ry="13" transform="rotate(18 78 35)"/>
      <path d="M 46 42 C 36 43, 28 50, 24 60 C 20 70, 24 78, 34 80 C 39 81, 43 79, 46 79 C 49 79, 53 81, 58 80 C 68 78, 72 70, 68 60 C 64 50, 56 43, 46 42 Z"/>
    </g>
    <g transform="translate(100,95) rotate(18 45 50)">
      <ellipse cx="15" cy="35" rx="10" ry="13" transform="rotate(-18 15 35)"/>
      <ellipse cx="35" cy="18" rx="11" ry="14"/>
      <ellipse cx="58" cy="18" rx="11" ry="14"/>
      <ellipse cx="78" cy="35" rx="10" ry="13" transform="rotate(18 78 35)"/>
      <path d="M 46 42 C 36 43, 28 50, 24 60 C 20 70, 24 78, 34 80 C 39 81, 43 79, 46 79 C 49 79, 53 81, 58 80 C 68 78, 72 70, 68 60 C 64 50, 56 43, 46 42 Z"/>
    </g>
  </g>
</svg>
